<svg xmlns="http://www.w3.org/2000/svg" xmlns:xlink="http://www.w3.org/1999/xlink" version="1.1" id="Your_Icon" x="0px" y="0px" width="100px" height="100px" viewBox="0 0 100 100" enable-background="new 0 0 100 100" xml:space="preserve">
<path fill="#000000" d="M50.045,100c-33.909,0-29.747-33.176-28.898-39.575c0.539-4.042,1.906-13.122,2.838-23.411  c6.079-1.984,12.823-3.293,19.96-3.775c2.1,3.927,4.639,4.587,6.1,4.587c1.456,0,3.995-0.66,6.096-4.587  c7.143,0.48,13.881,1.791,19.965,3.775c0.933,10.289,2.293,19.369,2.834,23.411C79.792,66.824,83.949,100,50.045,100z M57.156,6.079  c1.262,3.388,1.957,7.807,1.957,12.446c0,3.979-0.518,7.792-1.461,10.933c6.326,0.513,12.426,1.644,18.106,3.377  c-0.36-4.739-0.597-9.629-0.597-14.311C75.163,3.896,60.889,0.571,52.794,0C54.255,0.869,55.868,2.618,57.156,6.079z M40.976,18.525  c0-4.639,0.696-9.059,1.953-12.446c1.293-3.461,2.906-5.21,4.362-6.079c-8.095,0.565-22.369,3.896-22.369,18.525  c0,4.681-0.235,9.572-0.591,14.311c5.681-1.733,11.776-2.864,18.101-3.377C41.489,26.317,40.976,22.505,40.976,18.525z   M50.045,4.362c-3.43,0-6.21,6.341-6.21,14.164c0,7.818,2.78,14.159,6.21,14.159c3.43,0,6.205-6.341,6.205-14.159  C56.25,10.703,53.475,4.362,50.045,4.362z M53.998,14.839c0,3.938-1.77,7.131-3.953,7.131c-2.183,0-3.958-3.194-3.958-7.131  s1.775-7.132,3.958-7.132C52.229,7.708,53.998,10.902,53.998,14.839z"/>
</svg>